<?xml version="1.0" encoding="utf-8"?>
<svg id="svg2" viewBox="0 0 500 670" xmlns="http://www.w3.org/2000/svg">
  <desc>Source: openclipart.org/detail/209545</desc>
  <path fill="none" d="M 111.448 242.067 L 135.448 242.067 L 135.448 266.067 L 111.448 266.067 L 111.448 242.067 Z"/>
  <path d="M 271.775 252.325 L 271.775 402.308 C 271.74 406.861 267.868 410.532 263.096 410.565 L 123.128 410.565 C 118.337 410.565 114.457 406.87 114.448 402.308 L 114.448 252.325 C 114.482 247.78 118.355 244.101 123.128 244.067 L 263.096 244.067 C 267.886 244.067 271.775 247.764 271.775 252.325 Z M 186.932 336.658 L 165.299 316.044 L 152.941 327.824 L 186.932 360.2 L 236.377 313.105 L 224.017 301.334 L 186.932 336.649 L 186.932 336.658 Z" style="fill: rgb(167, 247, 215);"/>
</svg>